<svg xmlns="http://www.w3.org/2000/svg" viewBox="0 0 17.949 17.493"><defs><style>.a{fill:none;stroke:#6fa553;}</style></defs><path class="a" d="M1218.985,13.687a17.379,17.379,0,0,0-1.529,1.524,1.383,1.383,0,0,0-.219.486,6.221,6.221,0,0,0,0,3.207,14.309,14.309,0,0,0,4.657,6.933c3.091,2.575,5.44,3.915,6.661,4.034s2.5.206,3.069-.248a11.359,11.359,0,0,0,2.327-2.345c.241-.578-2.925-4.229-4.151-4.036s-1.834,2.016-2.844,1.9-4.976-4.3-5.188-5.09,2.194-2.118,2.114-2.564S1220.316,12.416,1218.985,13.687Z" transform="translate(-1216.51 -12.952)"/></svg>