<svg xmlns="http://www.w3.org/2000/svg" viewBox="0 0 221.13 39.001"><defs><style>.a{fill:#00a1b8;}.b{fill:#6fa553;}.c{fill:rgba(58,58,58,0.7);}</style></defs><g transform="translate(-1105 -751)"><path class="a" d="M24.785,26.795v-3.87H21.212v8.411L15.035,39H0L30.963,0H46.3Z" transform="translate(1105 751)"/><path class="a" d="M73.391,42.555H58.058L42.8,23.5l7.666-9.6Z" transform="translate(1094.056 747.446)"/><path class="b" d="M39.678,31.9,33.5,40.162H45.93Z" transform="translate(1096.434 742.843)"/><rect class="b" width="2.531" height="2.531" transform="translate(1129.785 784.27)"/><rect class="b" width="2.531" height="2.531" transform="translate(1132.688 784.27)"/><rect class="b" width="2.531" height="2.531" transform="translate(1129.785 787.173)"/><rect class="b" width="2.531" height="2.531" transform="translate(1132.688 787.173)"/><rect class="b" width="2.531" height="2.531" transform="translate(1137.005 784.27)"/><rect class="b" width="2.531" height="2.531" transform="translate(1139.907 784.27)"/><rect class="b" width="2.531" height="2.531" transform="translate(1137.005 787.173)"/><rect class="b" width="2.531" height="2.531" transform="translate(1139.907 787.173)"/><g transform="translate(1165.437 752.861)"><path class="c" d="M89.908,3.468c.3-.819.372-.968.521-.968s.223.149.521.893c.372.893,4.242,11.016,5.731,14.737.893,2.158,1.563,2.605,2.084,2.679a2.547,2.547,0,0,0,.968.149c.149,0,.223,0,.223.149s-.223.223-.521.223c-.372,0-2.158,0-3.87-.074-.447,0-.744,0-.744-.149a.16.16,0,0,1,.149-.149c.149-.074.3-.3.149-.67L92.96,14.26c-.074-.074-.074-.149-.223-.149H87.452a.2.2,0,0,0-.223.223L85.74,18.651a5.084,5.084,0,0,0-.372,1.637.825.825,0,0,0,.893.744h.223c.149,0,.223.074.223.149,0,.149-.149.223-.372.223-.6,0-1.637-.074-1.935-.074s-1.637.074-2.754.074q-.447,0-.447-.223c0-.074.074-.149.223-.149a2.792,2.792,0,0,0,.744-.074c1.116-.149,1.637-1.042,2.084-2.307Zm2.531,9.75c.149,0,.149-.074.074-.149L90.206,6.445c-.149-.372-.223-.372-.372,0l-2.158,6.624c-.074.149,0,.149.074.149Z" transform="translate(-81.2 -2.5)"/><path class="c" d="M110.277,19.023A9.379,9.379,0,0,1,107.3,11.8a10.025,10.025,0,0,1,2.754-6.7C111.542,3.616,113.775,2.5,117.5,2.5a20.988,20.988,0,0,1,3.573.3c.893.149,1.712.3,2.531.372.3,0,.3.149.3.3,0,.223-.074.521-.149,1.34s-.074,2.158-.074,2.531-.074.521-.223.521-.223-.149-.223-.521a3.421,3.421,0,0,0-1.042-2.531,8.205,8.205,0,0,0-4.912-1.414c-3.275,0-4.763.968-5.657,1.786-1.786,1.712-2.233,3.87-2.233,6.4a8.8,8.8,0,0,0,8.857,8.932c1.861,0,3.275-.223,4.242-1.191a4.539,4.539,0,0,0,.893-2.084c.074-.3.074-.372.223-.372s.149.149.149.372a29.587,29.587,0,0,1-.521,3.126c-.149.447-.223.521-.67.744a14.55,14.55,0,0,1-4.391.6C114.669,21.7,112.212,20.81,110.277,19.023Z" transform="translate(-87.874 -2.5)"/><path class="c" d="M136.577,19.023A9.379,9.379,0,0,1,133.6,11.8a10.025,10.025,0,0,1,2.754-6.7C137.842,3.616,140.075,2.5,143.8,2.5a20.988,20.988,0,0,1,3.573.3c.893.149,1.712.3,2.531.372.3,0,.3.149.3.3,0,.223-.074.521-.149,1.34s-.074,2.158-.074,2.531-.074.521-.223.521-.223-.149-.223-.521a3.421,3.421,0,0,0-1.042-2.531,8.205,8.205,0,0,0-4.912-1.414c-3.275,0-4.764.968-5.657,1.786-1.786,1.712-2.233,3.87-2.233,6.4a8.8,8.8,0,0,0,8.857,8.932c1.861,0,3.275-.223,4.242-1.191a4.539,4.539,0,0,0,.893-2.084c.074-.3.074-.372.223-.372s.149.149.149.372a29.587,29.587,0,0,1-.521,3.126c-.149.447-.223.521-.67.744a14.55,14.55,0,0,1-4.391.6C141.043,21.7,138.512,20.81,136.577,19.023Z" transform="translate(-94.599 -2.5)"/><path class="c" d="M164.468,14.362c0,3.573.074,5.136.521,5.582.372.372,1.042.6,2.9.6,1.265,0,2.382,0,2.977-.744a3.4,3.4,0,0,0,.67-1.489c0-.223.074-.3.223-.3s.149.074.149.372a13.124,13.124,0,0,1-.372,2.456c-.149.6-.223.67-1.563.67-1.786,0-3.052-.074-4.094-.074-1.042-.074-1.786-.074-2.531-.074h-.968c-.521,0-1.042.074-1.414.074-.3,0-.372-.074-.372-.223,0-.074.074-.149.223-.149.223,0,.521-.074.744-.074.521-.074.6-.67.744-1.34a48.933,48.933,0,0,0,.149-5.285V10.045c0-3.8,0-4.466-.074-5.284s-.223-1.191-1.042-1.414a3.053,3.053,0,0,0-.819-.074c-.074,0-.223-.074-.223-.149,0-.149.149-.223.372-.223,1.116,0,2.605.074,2.754.074s1.935-.074,2.605-.074c.3,0,.372.074.372.223,0,.074-.074.149-.223.149a3.652,3.652,0,0,0-.819.074c-.744.149-.893.521-.968,1.414-.074.819-.074,1.489-.074,5.284v4.317Z" transform="translate(-101.426 -2.602)"/><path class="c" d="M185.657,3.468c.3-.819.372-.968.521-.968s.223.149.521.893c.372.893,4.242,11.016,5.731,14.737.893,2.158,1.563,2.605,2.084,2.679a2.547,2.547,0,0,0,.968.149c.149,0,.223,0,.223.149s-.223.223-.521.223c-.372,0-2.158,0-3.87-.074-.447,0-.744,0-.744-.149a.16.16,0,0,1,.149-.149c.149-.074.3-.3.149-.67L188.56,14.26c-.074-.074-.074-.149-.223-.149h-5.285a.2.2,0,0,0-.223.223l-1.489,4.317a5.084,5.084,0,0,0-.372,1.637.825.825,0,0,0,.893.744h.223c.149,0,.223.074.223.149,0,.149-.149.223-.372.223-.6,0-1.637-.074-1.935-.074s-1.637.074-2.754.074q-.447,0-.447-.223c0-.074.074-.149.223-.149a2.792,2.792,0,0,0,.744-.074c1.116-.149,1.637-1.042,2.084-2.307Zm2.531,9.75c.149,0,.149-.074.074-.149l-2.307-6.624c-.149-.372-.223-.372-.372,0l-2.158,6.624c-.074.149,0,.149.074.149Z" transform="translate(-105.645 -2.5)"/><path class="c" d="M208.347,14.388a47.462,47.462,0,0,0,.149,5.284c.074.744.223,1.265.968,1.34a6.428,6.428,0,0,0,1.116.074c.149,0,.223.074.223.149,0,.149-.149.223-.372.223-1.34,0-2.9-.074-2.977-.074-.149,0-1.637.074-2.382.074-.3,0-.372-.074-.372-.223,0-.074.074-.149.223-.149.223,0,.521-.074.744-.074.521-.074.6-.67.744-1.34a48.937,48.937,0,0,0,.149-5.284V10.071c0-3.8,0-4.466-.074-5.284s-.3-1.265-.819-1.34a3.083,3.083,0,0,0-.744-.074c-.074,0-.223-.074-.223-.149,0-.149.149-.223.372-.223.819,0,2.382.074,2.456.074.149,0,1.637-.074,2.382-.074.3,0,.372.074.372.223,0,.074-.074.149-.223.149a2.1,2.1,0,0,0-.6.074c-.67.149-.893.521-.893,1.414-.074.819-.074,1.489-.074,5.284v4.242Z" transform="translate(-112.78 -2.628)"/><path class="c" d="M238.361,18.2c.074.893.3,2.233,1.34,2.605a5.289,5.289,0,0,0,1.563.223c.149,0,.223,0,.223.149s-.223.223-.521.223c-.521,0-3.2-.074-4.094-.149-.6-.074-.67-.149-.67-.223a.16.16,0,0,1,.149-.149c.149,0,.149-.447.074-.893L235.235,7.338h-.074l-5.954,12.653c-.521,1.042-.6,1.265-.819,1.265-.149,0-.3-.223-.744-1.116-.67-1.191-2.754-5.433-2.828-5.657-.223-.447-2.977-6.327-3.2-7h-.149L220.5,18.875V20.14a.791.791,0,0,0,.67.744c.447.074.819.149.893.149s.223.074.223.149q0,.223-.447.223c-.893,0-2.084-.074-2.307-.074s-1.414.074-2.084.074c-.223,0-.447-.074-.447-.223,0-.074.149-.149.223-.149a3.083,3.083,0,0,0,.744-.074c.819-.149.893-1.116.968-2.01l1.786-15.928c0-.3.149-.447.3-.447s.223.074.372.372l7.517,15.332,7.145-15.407c.074-.223.223-.372.372-.372s.223.223.3.67Z" transform="translate(-115.925 -2.5)"/><path class="c" d="M254.958,9.969c0-3.8,0-4.466-.074-5.284s-.223-1.191-1.042-1.414a3.053,3.053,0,0,0-.819-.074c-.074,0-.223-.074-.223-.149,0-.149.149-.223.372-.223h1.786l.968.074h5.582a3.083,3.083,0,0,0,1.042-.149c.149,0,.223-.149.372-.149.074,0,.074.074.074.223s-.149.447-.223,1.116a13.367,13.367,0,0,1-.149,1.637c0,.149-.074.3-.149.3-.149,0-.223-.149-.223-.3a2.213,2.213,0,0,0-.149-.893c-.149-.372-.447-.67-1.712-.819-.447-.074-3.052-.074-3.349-.074-.074,0-.149.074-.149.223v6.773c0,.149,0,.223.149.223.3,0,3.349,0,3.87-.074.6-.074.893-.074,1.116-.372.149-.223.3-.3.372-.3s.149.074.149.223-.149.6-.223,1.34a13.954,13.954,0,0,0-.074,1.563c0,.223,0,.447-.149.447s-.149-.074-.149-.223a3.336,3.336,0,0,0-.074-.819c-.074-.372-.3-.744-1.265-.893-.67-.074-3.052-.149-3.5-.149-.149,0-.149.074-.149.149V18.23c.074,1.712.447,2.01,2.828,2.01a6.555,6.555,0,0,0,2.382-.3c.67-.3.893-.744,1.116-1.786.074-.3.074-.372.223-.372s.149.223.149.372c0,.223-.223,1.861-.3,2.382-.149.67-.372.67-1.34.67-1.861,0-3.2-.074-4.168-.074-.968-.074-1.563-.074-1.935-.074h-.968c-.521,0-1.042.074-1.414.074-.3,0-.372-.074-.372-.223,0-.074.074-.149.223-.149.223,0,.521-.074.744-.074.521-.074.6-.67.744-1.34a48.937,48.937,0,0,0,.149-5.284V9.969Z" transform="translate(-125.079 -2.526)"/><path class="c" d="M274.258,10.044c0-3.8,0-4.466-.074-5.284s-.223-1.191-1.042-1.414a3.053,3.053,0,0,0-.819-.074c-.074,0-.223-.074-.223-.149,0-.149.149-.223.372-.223,1.116,0,2.6.074,2.754.074.3,0,1.861-.074,3.275-.074,2.456,0,6.922-.223,9.825,2.754a8.789,8.789,0,0,1,2.382,6.178,10.348,10.348,0,0,1-2.605,6.922c-1.042,1.116-3.275,2.828-7.443,2.828-1.042,0-2.382-.074-3.424-.149s-1.935-.149-2.01-.149h-.968c-.521,0-1.042.074-1.414.074-.3,0-.372-.074-.372-.223,0-.074.074-.149.223-.149.223,0,.521-.074.744-.074.521-.074.6-.67.744-1.34a48.942,48.942,0,0,0,.149-5.284V10.044Zm2.01,2.605c0,2.605,0,4.838.074,5.285a4.429,4.429,0,0,0,.3,1.861c.3.447,1.265.968,4.168.968a7.907,7.907,0,0,0,5.806-2.307,8.607,8.607,0,0,0,1.935-5.88A8.561,8.561,0,0,0,286.167,6.4c-2.307-2.456-5.061-2.754-7.964-2.754a7.309,7.309,0,0,0-1.563.149c-.223.074-.3.223-.3.521v8.336Z" transform="translate(-130.014 -2.601)"/></g><g transform="translate(1175.708 777.646)"><path class="c" d="M104.6,42.5c0,1.34,0,2.382.074,2.977.074.372.149.67.521.744.223,0,.521.074.6.074a.073.073,0,0,1,.074.074c0,.074-.074.074-.223.074-.744,0-1.637-.074-1.712-.074s-.968.074-1.34.074c-.149,0-.223,0-.223-.074s0-.074.074-.074a.944.944,0,0,0,.447-.074c.3-.074.372-.372.372-.744.074-.6.074-1.637.074-2.977V41.087a.073.073,0,0,0-.074-.074H97.456c-.074,0-.074,0-.074.074V42.5c0,1.34,0,2.382.074,2.977.074.372.149.67.521.744.223,0,.521.074.6.074a.073.073,0,0,1,.074.074c0,.074-.074.074-.223.074-.744,0-1.637-.074-1.712-.074s-.968.074-1.34.074c-.149,0-.223,0-.223-.074s0-.074.074-.074a.944.944,0,0,0,.447-.074c.3-.074.372-.372.372-.744.074-.6.074-1.637.074-2.977V37.142a.737.737,0,0,0-.6-.819c-.074,0-.372-.074-.447-.074s-.074,0-.074-.074.074-.074.223-.074c.6,0,1.489.074,1.563.074s.968-.074,1.34-.074c.149,0,.223,0,.223.074a.073.073,0,0,1-.074.074,1,1,0,0,0-.372.074c-.372.074-.447.3-.521.819v3.275a.073.073,0,0,0,.074.074h5.806c.074,0,.074,0,.074-.074V37.142a.737.737,0,0,0-.6-.819c-.074,0-.372-.074-.447-.074s-.074,0-.074-.074.074-.074.223-.074c.6,0,1.489.074,1.563.074s.968-.074,1.34-.074c.149,0,.223,0,.223.074a.073.073,0,0,1-.074.074,1,1,0,0,0-.372.074c-.372.074-.447.3-.521.819V42.5Z" transform="translate(-95 -35.877)"/><path class="c" d="M118.033,35.8c3.126,0,5.433,1.935,5.433,5.136a5.437,5.437,0,0,1-5.508,5.657,5.153,5.153,0,0,1-5.359-5.433A5.32,5.32,0,0,1,118.033,35.8Zm.3,10.271c1.265,0,3.8-.744,3.8-4.689,0-3.275-2.01-5.061-4.168-5.061-2.307,0-4.019,1.489-4.019,4.54C113.94,43.987,115.8,46.071,118.331,46.071Z" transform="translate(-99.5 -35.8)"/><path class="c" d="M141.783,44.608c.074.521.149,1.265.744,1.489a2.4,2.4,0,0,0,.893.149c.074,0,.074,0,.074.074s-.149.149-.3.149c-.3,0-1.786-.074-2.307-.074-.3,0-.372-.074-.372-.149s0-.074.074-.074.074-.223.074-.521L140,38.579h-.074l-3.275,7.071c-.3.6-.3.744-.447.744-.074,0-.149-.149-.447-.6-.372-.67-1.563-3.052-1.637-3.2-.149-.223-1.637-3.573-1.786-3.945h-.074l-.521,6.4v.67a.472.472,0,0,0,.372.447,1.676,1.676,0,0,0,.521.074c.074,0,.074,0,.074.074s-.074.149-.223.149c-.521,0-1.191-.074-1.265-.074-.149,0-.819.074-1.191.074-.149,0-.223,0-.223-.149,0-.074.074-.074.149-.074a1.31,1.31,0,0,0,.447-.074c.447-.074.521-.6.521-1.116l.968-8.932c0-.149.074-.223.149-.223s.149.074.223.223l4.168,8.634,4.019-8.634c.074-.149.074-.223.223-.223s.149.074.149.372Z" transform="translate(-103.898 -35.826)"/><path class="c" d="M151.716,39.968V36.991a.737.737,0,0,0-.6-.819c-.074,0-.372-.074-.447-.074s-.074,0-.074-.074.074-.074.223-.074h4.689c.3,0,.447-.074.6-.074.074,0,.149-.074.223-.074s.074.074.074.149a4.114,4.114,0,0,0-.074.67c0,.149-.074.744-.074.893a.26.26,0,0,1-.074.149c-.074,0-.074-.074-.074-.149a1.677,1.677,0,0,0-.074-.521c-.074-.223-.223-.372-.968-.447-.223,0-1.712-.074-1.861-.074-.074,0-.074.074-.074.149v3.8c0,.074,0,.149.074.149h2.158a.91.91,0,0,0,.67-.223c.074-.074.149-.149.223-.149s.074,0,.074.074a4.351,4.351,0,0,0-.074.744c0,.3-.074.819-.074.893s0,.3-.074.3-.074-.074-.074-.149a.944.944,0,0,0-.074-.447c-.074-.223-.149-.447-.744-.447a18.159,18.159,0,0,0-1.935-.074.073.073,0,0,0-.074.074v3.573c.074.968.223,1.116,1.563,1.116a4.121,4.121,0,0,0,1.34-.149c.372-.149.521-.447.6-.968,0-.149.074-.223.149-.223s.074.074.074.223a12.087,12.087,0,0,1-.149,1.34c-.074.372-.223.372-.744.372a18.947,18.947,0,0,1-2.307-.074c-.521,0-.893-.074-1.042-.074h-1.34c-.149,0-.223,0-.223-.074s0-.074.074-.074a.944.944,0,0,0,.447-.074c.3-.074.372-.372.372-.744.074-.6.074-1.637.074-2.977V39.968Z" transform="translate(-109.217 -35.8)"/><path class="c" d="M178.09,44.585h0c.447-1.265,1.712-5.284,2.158-7a2.619,2.619,0,0,0,.149-.893c0-.223-.149-.447-.819-.447a.26.26,0,0,1-.149-.074c0-.074.074-.074.223-.074.67,0,1.265.074,1.414.074.074,0,.67-.074,1.116-.074.149,0,.223,0,.223.074s-.074.074-.149.074a1.106,1.106,0,0,0-.447.074c-.447.149-.6.744-.893,1.489-.6,1.712-2.01,6.1-2.531,7.666-.372,1.042-.447,1.191-.6,1.191s-.223-.149-.447-.744l-2.605-7.666h0c-.521,1.34-2.382,6.327-2.9,7.592-.223.6-.3.744-.447.744s-.223-.149-.447-1.116l-2.456-8.038c-.223-.744-.372-.968-.744-1.042a1.85,1.85,0,0,0-.6-.074c-.074,0-.149,0-.149-.074s.074-.074.223-.074c.744,0,1.489.074,1.637.074s.744-.074,1.414-.074c.223,0,.223.074.223.074,0,.074-.074.074-.149.074a1.453,1.453,0,0,0-.521.074.387.387,0,0,0-.149.3,12.262,12.262,0,0,0,.3,1.265c.223.893,1.637,5.954,1.861,6.624h0l2.9-7.815c.223-.6.3-.6.372-.6s.149.149.372.67Z" transform="translate(-113.411 -35.877)"/><path class="c" d="M191.287,36.321c.149-.447.223-.521.3-.521s.149.074.3.521c.223.521,2.382,6.178,3.2,8.262.521,1.191.893,1.414,1.191,1.489a1.676,1.676,0,0,0,.521.074c.074,0,.149,0,.149.074s-.149.074-.3.074h-2.158c-.3,0-.447,0-.447-.074a.073.073,0,0,1,.074-.074c.074,0,.149-.149.074-.372l-1.265-3.349c0-.074-.074-.074-.149-.074H189.8c-.074,0-.074.074-.149.074l-.819,2.456a2.573,2.573,0,0,0-.223.893c0,.3.3.372.521.372h.149c.074,0,.149,0,.149.074s-.074.074-.223.074c-.3,0-.893-.074-1.042-.074s-.893.074-1.563.074c-.149,0-.3,0-.3-.074s.074-.074.149-.074h.372c.6-.074.893-.6,1.191-1.265Zm1.414,5.508a.073.073,0,0,0,.074-.074l-1.34-3.721q-.112-.335-.223,0l-1.191,3.721c0,.074,0,.074.074.074Z" transform="translate(-118.346 -35.8)"/><path class="c" d="M203.416,40.019V37.042a.737.737,0,0,0-.6-.819c-.074,0-.372-.074-.447-.074s-.074,0-.074-.074.074-.074.223-.074c.6,0,1.489.074,1.563.074.149,0,1.191-.074,1.637-.074a4.263,4.263,0,0,1,2.531.6,2.244,2.244,0,0,1,.968,1.861,4.448,4.448,0,0,1-1.637,3.2c1.116,1.414,2.084,2.679,2.828,3.5a2.362,2.362,0,0,0,1.712.968,1.964,1.964,0,0,0,.521.074.26.26,0,0,1,.149.074c0,.074-.074.074-.3.074h-.968a2.622,2.622,0,0,1-1.489-.3c-.6-.3-1.042-.968-1.861-2.01-.6-.744-1.191-1.712-1.489-2.01-.074-.074-.074-.074-.149-.074h-1.712a.073.073,0,0,0-.074.074v.3c0,1.34,0,2.382.074,2.977.074.372.149.67.521.744.223,0,.521.074.6.074a.073.073,0,0,1,.074.074c0,.074-.074.074-.223.074-.744,0-1.637-.074-1.712-.074,0,0-.893.074-1.265.074-.149,0-.223,0-.223-.074s0-.074.074-.074a.944.944,0,0,0,.447-.074c.3-.074.372-.372.372-.744.074-.6.074-1.637.074-2.977V40.019Zm1.116,1.191c0,.074,0,.149.074.149a3.264,3.264,0,0,0,1.414.223,1.86,1.86,0,0,0,1.042-.3,2.49,2.49,0,0,0,.819-2.084c0-1.712-.893-2.754-2.382-2.754a7.836,7.836,0,0,0-.893.074c-.074,0-.074.074-.074.149Z" transform="translate(-122.437 -35.851)"/><path class="c" d="M217.916,40.019V37.042a.737.737,0,0,0-.6-.819c-.074,0-.372-.074-.447-.074s-.074,0-.074-.074.074-.074.223-.074c.6,0,1.489.074,1.563.074.149,0,1.191-.074,1.637-.074a4.264,4.264,0,0,1,2.531.6,2.244,2.244,0,0,1,.968,1.861,4.448,4.448,0,0,1-1.637,3.2c1.116,1.414,2.084,2.679,2.828,3.5a2.362,2.362,0,0,0,1.712.968,1.964,1.964,0,0,0,.521.074.26.26,0,0,1,.149.074c0,.074-.074.074-.3.074h-.968a2.622,2.622,0,0,1-1.489-.3c-.6-.3-1.042-.968-1.861-2.01-.6-.744-1.191-1.712-1.489-2.01-.074-.074-.074-.074-.149-.074h-1.712a.073.073,0,0,0-.074.074v.3c0,1.34,0,2.382.074,2.977.074.372.149.67.521.744.223,0,.521.074.6.074a.073.073,0,0,1,.074.074c0,.074-.074.074-.223.074-.744,0-1.637-.074-1.712-.074,0,0-.893.074-1.265.074-.149,0-.223,0-.223-.074s0-.074.074-.074a.944.944,0,0,0,.447-.074c.3-.074.372-.372.372-.744.074-.6.074-1.637.074-2.977V40.019Zm1.116,1.191c0,.074,0,.149.074.149a3.264,3.264,0,0,0,1.414.223,1.861,1.861,0,0,0,1.042-.3,2.49,2.49,0,0,0,.819-2.084c0-1.712-.893-2.754-2.382-2.754a7.837,7.837,0,0,0-.893.074c-.074,0-.074.074-.074.149Z" transform="translate(-126.145 -35.851)"/><path class="c" d="M234.087,36.321c.149-.447.223-.521.3-.521s.149.074.3.521c.223.521,2.382,6.178,3.2,8.262.521,1.191.893,1.414,1.191,1.489a1.676,1.676,0,0,0,.521.074c.074,0,.149,0,.149.074s-.149.074-.3.074h-2.158c-.3,0-.447,0-.447-.074a.073.073,0,0,1,.074-.074c.074,0,.149-.149.074-.372l-1.265-3.349c0-.074-.074-.074-.149-.074H232.6c-.074,0-.074.074-.149.074l-.819,2.456a2.574,2.574,0,0,0-.223.893c0,.3.3.372.521.372h.149c.074,0,.149,0,.149.074s-.074.074-.223.074c-.3,0-.893-.074-1.042-.074s-.893.074-1.563.074c-.149,0-.3,0-.3-.074s.074-.074.149-.074h.372c.6-.074.893-.6,1.191-1.265Zm1.414,5.508a.073.073,0,0,0,.074-.074l-1.34-3.721q-.112-.335-.223,0l-1.191,3.721c0,.074,0,.074.074.074Z" transform="translate(-129.29 -35.8)"/><path class="c" d="M246.21,44.508c0,1.116.149,1.489.521,1.563a2.879,2.879,0,0,0,.67.074c.074,0,.074,0,.074.074s-.074.074-.223.074c-.819,0-1.34-.074-1.489-.074s-.67.074-1.34.074c-.149,0-.223,0-.223-.074a.073.073,0,0,1,.074-.074,2.094,2.094,0,0,0,.6-.074c.372-.074.447-.521.447-1.712V36.47c0-.521.074-.67.149-.67s.372.3.447.447c.223.223,2.233,2.456,4.391,4.689,1.34,1.489,2.828,3.126,3.275,3.573l-.149-7c0-.893-.074-1.191-.521-1.34a2.564,2.564,0,0,0-.67-.074.073.073,0,0,1-.074-.074c0-.074.074-.074.3-.074.6,0,1.265.074,1.414.074s.6-.074,1.191-.074c.149,0,.223,0,.223.074s-.074.074-.149.074a.563.563,0,0,0-.3.074c-.447.074-.521.372-.521,1.191V45.4c0,.893,0,.968-.149.968-.074,0-.3-.149-.968-.893-.149-.149-2.158-2.158-3.573-3.721-1.563-1.712-3.126-3.424-3.573-3.945Z" transform="translate(-133.151 -35.8)"/><path class="c" d="M266.636,42.424c0,1.34,0,2.382.074,2.977.074.372.149.67.521.744.223,0,.521.074.6.074a.073.073,0,0,1,.075.074c0,.074-.075.074-.223.074-.744,0-1.637-.074-1.712-.074s-.968.074-1.34.074c-.149,0-.223,0-.223-.074s0-.074.074-.074a.944.944,0,0,0,.447-.074c.3-.074.372-.372.372-.744.074-.6.074-1.637.074-2.977V36.619h-2.01c-.819,0-1.191.074-1.414.447-.149.223-.223.3-.223.447-.074.074-.074.149-.149.149s-.074-.074-.074-.149c0-.149.3-1.34.3-1.414s.074-.3.149-.3a1.539,1.539,0,0,0,.6.149,6.428,6.428,0,0,0,1.116.074h5.136a3.358,3.358,0,0,0,.968-.074,1.514,1.514,0,0,0,.372-.074c.074,0,.074.074.074.149,0,.447-.074,1.34-.074,1.489s-.074.149-.074.149c-.074,0-.074-.074-.074-.223v-.149c-.074-.447-.372-.744-1.712-.744h-1.712v5.88Z" transform="translate(-137.575 -35.8)"/><path class="c" d="M279.691,42.873a3.082,3.082,0,0,0-.3-1.414c-.074-.223-1.935-3.275-2.382-3.945a4.491,4.491,0,0,0-.968-1.042,1.188,1.188,0,0,0-.6-.223c-.074,0-.149,0-.149-.074s.074-.074.149-.074c.3,0,1.265.074,1.34.074s.6-.074,1.191-.074c.149,0,.149.074.149.074a.921.921,0,0,1-.223.149c-.074.074-.149.149-.149.223a1.893,1.893,0,0,0,.149.521c.223.372,2.307,3.945,2.531,4.317.3-.6,2.01-3.573,2.307-4.019a1.714,1.714,0,0,0,.223-.67c0-.223-.074-.372-.223-.372-.149-.074-.223-.074-.223-.149s.074-.074.223-.074c.372,0,.819.074.893.074s1.042-.074,1.34-.074c.074,0,.149,0,.149.074s-.074.074-.149.074a.99.99,0,0,0-.6.223,2.021,2.021,0,0,0-.744.67,37.807,37.807,0,0,0-2.605,4.391,2.984,2.984,0,0,0-.223,1.34v1.191a10.1,10.1,0,0,0,.074,1.34.666.666,0,0,0,.6.744c.223,0,.521.074.6.074a.073.073,0,0,1,.074.074c0,.074-.074.074-.223.074-.744,0-1.637-.074-1.712-.074s-.968.074-1.34.074c-.149,0-.223,0-.223-.074s0-.074.074-.074a.944.944,0,0,0,.447-.074c.3-.074.372-.372.447-.744a11.353,11.353,0,0,0,.074-1.34V42.873Z" transform="translate(-141.103 -35.877)"/></g></g></svg>